<?xml version="1.0" encoding="UTF-8" standalone="no"?>
<!DOCTYPE svg PUBLIC "-//W3C//DTD SVG 1.1//EN"
 "http://www.w3.org/Graphics/SVG/1.1/DTD/svg11.dtd">
<!-- Generated by graphviz version 2.43.0 (0)
 -->
<!-- Title: G Pages: 1 -->
<svg width="417pt" height="415pt"
 viewBox="0.00 0.00 417.00 415.00" xmlns="http://www.w3.org/2000/svg" xmlns:xlink="http://www.w3.org/1999/xlink">
<g id="graph0" class="graph" transform="scale(1 1) rotate(0) translate(4 411)">
<title>G</title>
<polygon fill="#ff7f50" stroke="transparent" points="-4,4 -4,-411 413,-411 413,4 -4,4"/>
<g id="clust1" class="cluster">
<title>cluster_list</title>
<polygon fill="#ff7f50" stroke="#800080" stroke-dasharray="5,2" points="8,-8 8,-342 401,-342 401,-8 8,-8"/>
</g>
<!-- node0x603000000040 -->
<g id="node1" class="node">
<title>node0x603000000040</title>
<path fill="#ffe4c4" stroke="#800000" d="M64.5,-276.5C64.5,-276.5 315.5,-276.5 315.5,-276.5 321.5,-276.5 327.5,-282.5 327.5,-288.5 327.5,-288.5 327.5,-321.5 327.5,-321.5 327.5,-327.5 321.5,-333.5 315.5,-333.5 315.5,-333.5 64.5,-333.5 64.5,-333.5 58.5,-333.5 52.5,-327.5 52.5,-321.5 52.5,-321.5 52.5,-288.5 52.5,-288.5 52.5,-282.5 58.5,-276.5 64.5,-276.5"/>
<text text-anchor="middle" x="190" y="-321.5" font-family="Times,serif" font-size="10.00">PTR: 0x603000000040</text>
<polyline fill="none" stroke="#800000" points="52.5,-314.5 327.5,-314.5 "/>
<text text-anchor="middle" x="190" y="-302.5" font-family="Times,serif" font-size="10.00">DATA: 2</text>
<polyline fill="none" stroke="#800000" points="52.5,-295.5 327.5,-295.5 "/>
<text text-anchor="middle" x="119.5" y="-283.5" font-family="Times,serif" font-size="10.00">LEFT: 0x603000000070</text>
<polyline fill="none" stroke="#800000" points="186.5,-276.5 186.5,-295.5 "/>
<text text-anchor="middle" x="257" y="-283.5" font-family="Times,serif" font-size="10.00">RIGHT: 0x6030000000a0</text>
</g>
<!-- node0x603000000070 -->
<g id="node2" class="node">
<title>node0x603000000070</title>
<path fill="#ffe4c4" stroke="#800000" d="M28.5,-182.5C28.5,-182.5 151.5,-182.5 151.5,-182.5 157.5,-182.5 163.5,-188.5 163.5,-194.5 163.5,-194.5 163.5,-227.5 163.5,-227.5 163.5,-233.5 157.5,-239.5 151.5,-239.5 151.5,-239.5 28.5,-239.5 28.5,-239.5 22.5,-239.5 16.5,-233.5 16.5,-227.5 16.5,-227.5 16.5,-194.5 16.5,-194.5 16.5,-188.5 22.5,-182.5 28.5,-182.5"/>
<text text-anchor="middle" x="90" y="-227.5" font-family="Times,serif" font-size="10.00">PTR: 0x603000000070</text>
<polyline fill="none" stroke="#800000" points="16.5,-220.5 163.5,-220.5 "/>
<text text-anchor="middle" x="90" y="-208.5" font-family="Times,serif" font-size="10.00">DATA: &#45;10</text>
<polyline fill="none" stroke="#800000" points="16.5,-201.5 163.5,-201.5 "/>
<text text-anchor="middle" x="51.5" y="-189.5" font-family="Times,serif" font-size="10.00">LEFT: (nil)</text>
<polyline fill="none" stroke="#800000" points="86.5,-182.5 86.5,-201.5 "/>
<text text-anchor="middle" x="125" y="-189.5" font-family="Times,serif" font-size="10.00">RIGHT: (nil)</text>
</g>
<!-- node0x603000000040&#45;&gt;node0x603000000070 -->
<g id="edge3" class="edge">
<title>node0x603000000040:f0&#45;&gt;node0x603000000070</title>
<path fill="none" stroke="#000000" d="M119,-276C119,-266.87 116.52,-257.61 113.01,-249.07"/>
<polygon fill="#000000" stroke="#000000" points="116.09,-247.38 108.69,-239.79 109.74,-250.33 116.09,-247.38"/>
</g>
<!-- node0x6030000000a0 -->
<g id="node5" class="node">
<title>node0x6030000000a0</title>
<path fill="#ffe4c4" stroke="#800000" d="M193.5,-182.5C193.5,-182.5 380.5,-182.5 380.5,-182.5 386.5,-182.5 392.5,-188.5 392.5,-194.5 392.5,-194.5 392.5,-227.5 392.5,-227.5 392.5,-233.5 386.5,-239.5 380.5,-239.5 380.5,-239.5 193.5,-239.5 193.5,-239.5 187.5,-239.5 181.5,-233.5 181.5,-227.5 181.5,-227.5 181.5,-194.5 181.5,-194.5 181.5,-188.5 187.5,-182.5 193.5,-182.5"/>
<text text-anchor="middle" x="287" y="-227.5" font-family="Times,serif" font-size="10.00">PTR: 0x6030000000a0</text>
<polyline fill="none" stroke="#800000" points="181.5,-220.5 392.5,-220.5 "/>
<text text-anchor="middle" x="287" y="-208.5" font-family="Times,serif" font-size="10.00">DATA: 10</text>
<polyline fill="none" stroke="#800000" points="181.5,-201.5 392.5,-201.5 "/>
<text text-anchor="middle" x="248.5" y="-189.5" font-family="Times,serif" font-size="10.00">LEFT: 0x6030000000d0</text>
<polyline fill="none" stroke="#800000" points="315.5,-182.5 315.5,-201.5 "/>
<text text-anchor="middle" x="354" y="-189.5" font-family="Times,serif" font-size="10.00">RIGHT: (nil)</text>
</g>
<!-- node0x603000000040&#45;&gt;node0x6030000000a0 -->
<g id="edge8" class="edge">
<title>node0x603000000040:f1&#45;&gt;node0x6030000000a0</title>
<path fill="none" stroke="#000000" d="M257,-276C257,-266.72 259.62,-257.33 263.31,-248.72"/>
<polygon fill="#000000" stroke="#000000" points="266.46,-250.24 267.66,-239.71 260.16,-247.19 266.46,-250.24"/>
</g>
<!-- null1 -->
<g id="node3" class="node">
<title>null1</title>
<ellipse fill="#bc8f8f" stroke="#800000" cx="49" cy="-117" rx="27.84" ry="18"/>
<text text-anchor="middle" x="49" y="-114.5" font-family="Times,serif" font-size="10.00">NULL</text>
</g>
<!-- node0x603000000070&#45;&gt;null1 -->
<g id="edge1" class="edge">
<title>node0x603000000070&#45;&gt;null1</title>
<path fill="none" stroke="#000000" d="M77.7,-182.4C72.28,-170.24 65.95,-156.03 60.61,-144.06"/>
<polygon fill="#000000" stroke="#000000" points="63.67,-142.33 56.41,-134.62 57.28,-145.18 63.67,-142.33"/>
</g>
<!-- null2 -->
<g id="node4" class="node">
<title>null2</title>
<ellipse fill="#bc8f8f" stroke="#800000" cx="122" cy="-117" rx="27.84" ry="18"/>
<text text-anchor="middle" x="122" y="-114.5" font-family="Times,serif" font-size="10.00">NULL</text>
</g>
<!-- node0x603000000070&#45;&gt;null2 -->
<g id="edge2" class="edge">
<title>node0x603000000070&#45;&gt;null2</title>
<path fill="none" stroke="#000000" d="M99.6,-182.4C103.79,-170.36 108.67,-156.31 112.81,-144.42"/>
<polygon fill="#000000" stroke="#000000" points="116.24,-145.21 116.22,-134.62 109.63,-142.91 116.24,-145.21"/>
</g>
<!-- node0x6030000000d0 -->
<g id="node6" class="node">
<title>node0x6030000000d0</title>
<path fill="#ffe4c4" stroke="#800000" d="M181.5,-88.5C181.5,-88.5 304.5,-88.5 304.5,-88.5 310.5,-88.5 316.5,-94.5 316.5,-100.5 316.5,-100.5 316.5,-133.5 316.5,-133.5 316.5,-139.5 310.5,-145.5 304.5,-145.5 304.5,-145.5 181.5,-145.5 181.5,-145.5 175.5,-145.5 169.5,-139.5 169.5,-133.5 169.5,-133.5 169.5,-100.5 169.5,-100.5 169.5,-94.5 175.5,-88.5 181.5,-88.5"/>
<text text-anchor="middle" x="243" y="-133.5" font-family="Times,serif" font-size="10.00">PTR: 0x6030000000d0</text>
<polyline fill="none" stroke="#800000" points="169.5,-126.5 316.5,-126.5 "/>
<text text-anchor="middle" x="243" y="-114.5" font-family="Times,serif" font-size="10.00">DATA: 3</text>
<polyline fill="none" stroke="#800000" points="169.5,-107.5 316.5,-107.5 "/>
<text text-anchor="middle" x="204.5" y="-95.5" font-family="Times,serif" font-size="10.00">LEFT: (nil)</text>
<polyline fill="none" stroke="#800000" points="239.5,-88.5 239.5,-107.5 "/>
<text text-anchor="middle" x="278" y="-95.5" font-family="Times,serif" font-size="10.00">RIGHT: (nil)</text>
</g>
<!-- node0x6030000000a0&#45;&gt;node0x6030000000d0 -->
<g id="edge6" class="edge">
<title>node0x6030000000a0:f0&#45;&gt;node0x6030000000d0</title>
<path fill="none" stroke="#000000" d="M248,-182C248,-173.52 247.56,-164.43 246.94,-155.84"/>
<polygon fill="#000000" stroke="#000000" points="250.41,-155.37 246.11,-145.69 243.43,-155.94 250.41,-155.37"/>
</g>
<!-- null5 -->
<g id="node9" class="node">
<title>null5</title>
<ellipse fill="#bc8f8f" stroke="#800000" cx="362" cy="-117" rx="27.84" ry="18"/>
<text text-anchor="middle" x="362" y="-114.5" font-family="Times,serif" font-size="10.00">NULL</text>
</g>
<!-- node0x6030000000a0&#45;&gt;null5 -->
<g id="edge7" class="edge">
<title>node0x6030000000a0&#45;&gt;null5</title>
<path fill="none" stroke="#000000" d="M309.5,-182.4C320.16,-169.32 332.75,-153.88 342.93,-141.39"/>
<polygon fill="#000000" stroke="#000000" points="345.94,-143.24 349.54,-133.28 340.51,-138.82 345.94,-143.24"/>
</g>
<!-- null3 -->
<g id="node7" class="node">
<title>null3</title>
<ellipse fill="#bc8f8f" stroke="#800000" cx="206" cy="-34" rx="27.84" ry="18"/>
<text text-anchor="middle" x="206" y="-31.5" font-family="Times,serif" font-size="10.00">NULL</text>
</g>
<!-- node0x6030000000d0&#45;&gt;null3 -->
<g id="edge4" class="edge">
<title>node0x6030000000d0&#45;&gt;null3</title>
<path fill="none" stroke="#000000" d="M230.27,-88.12C226.2,-79.21 221.71,-69.4 217.72,-60.65"/>
<polygon fill="#000000" stroke="#000000" points="220.8,-58.98 213.46,-51.34 214.44,-61.89 220.8,-58.98"/>
</g>
<!-- null4 -->
<g id="node8" class="node">
<title>null4</title>
<ellipse fill="#bc8f8f" stroke="#800000" cx="279" cy="-34" rx="27.84" ry="18"/>
<text text-anchor="middle" x="279" y="-31.5" font-family="Times,serif" font-size="10.00">NULL</text>
</g>
<!-- node0x6030000000d0&#45;&gt;null4 -->
<g id="edge5" class="edge">
<title>node0x6030000000d0&#45;&gt;null4</title>
<path fill="none" stroke="#000000" d="M255.39,-88.12C259.29,-79.35 263.58,-69.69 267.42,-61.04"/>
<polygon fill="#000000" stroke="#000000" points="270.66,-62.37 271.53,-51.81 264.27,-59.53 270.66,-62.37"/>
</g>
<!-- All -->
<g id="node10" class="node">
<title>All</title>
<path fill="#ffe4c4" stroke="#800000" d="M73,-370.5C73,-370.5 243,-370.5 243,-370.5 249,-370.5 255,-376.5 255,-382.5 255,-382.5 255,-394.5 255,-394.5 255,-400.5 249,-406.5 243,-406.5 243,-406.5 73,-406.5 73,-406.5 67,-406.5 61,-400.5 61,-394.5 61,-394.5 61,-382.5 61,-382.5 61,-376.5 67,-370.5 73,-370.5"/>
<text text-anchor="middle" x="93" y="-386" font-family="Times,serif" font-size="10.00">HEADER</text>
<polyline fill="none" stroke="#800000" points="125,-370.5 125,-406.5 "/>
<text text-anchor="middle" x="190" y="-386" font-family="Times,serif" font-size="10.00">Root: 0x603000000040</text>
</g>
<!-- All&#45;&gt;node0x603000000040 -->
<g id="edge9" class="edge">
<title>All:f0&#45;&gt;node0x603000000040</title>
<path fill="none" stroke="#ffffff" d="M190,-370C190,-361.55 190,-352.47 190,-343.88"/>
<polygon fill="#ffffff" stroke="#ffffff" points="193.5,-343.72 190,-333.72 186.5,-343.72 193.5,-343.72"/>
</g>
</g>
</svg>
