<?xml version="1.0" encoding="UTF-8" standalone="no"?>
<!DOCTYPE svg PUBLIC "-//W3C//DTD SVG 1.1//EN"
 "http://www.w3.org/Graphics/SVG/1.1/DTD/svg11.dtd">
<!-- Generated by graphviz version 2.43.0 (0)
 -->
<!-- Title: G Pages: 1 -->
<svg width="138pt" height="45pt"
 viewBox="0.00 0.00 138.00 45.00" xmlns="http://www.w3.org/2000/svg" xmlns:xlink="http://www.w3.org/1999/xlink">
<g id="graph0" class="graph" transform="scale(1 1) rotate(0) translate(4 41)">
<title>G</title>
<polygon fill="#ff7f50" stroke="transparent" points="-4,4 -4,-41 134,-41 134,4 -4,4"/>
<!-- All -->
<g id="node1" class="node">
<title>All</title>
<path fill="#ffe4c4" stroke="#800000" d="M12,-0.5C12,-0.5 118,-0.5 118,-0.5 124,-0.5 130,-6.5 130,-12.5 130,-12.5 130,-24.5 130,-24.5 130,-30.5 124,-36.5 118,-36.5 118,-36.5 12,-36.5 12,-36.5 6,-36.5 0,-30.5 0,-24.5 0,-24.5 0,-12.5 0,-12.5 0,-6.5 6,-0.5 12,-0.5"/>
<text text-anchor="middle" x="32" y="-16" font-family="Times,serif" font-size="10.00">HEADER</text>
<polyline fill="none" stroke="#800000" points="64,-0.5 64,-36.5 "/>
<text text-anchor="middle" x="97" y="-16" font-family="Times,serif" font-size="10.00">Root: (nil)</text>
</g>
</g>
</svg>
