<?xml version="1.0" encoding="UTF-8" standalone="no"?>
<!DOCTYPE svg PUBLIC "-//W3C//DTD SVG 1.1//EN"
 "http://www.w3.org/Graphics/SVG/1.1/DTD/svg11.dtd">
<!-- Generated by graphviz version 2.43.0 (0)
 -->
<!-- Title: G Pages: 1 -->
<svg width="228pt" height="227pt"
 viewBox="0.00 0.00 228.00 227.00" xmlns="http://www.w3.org/2000/svg" xmlns:xlink="http://www.w3.org/1999/xlink">
<g id="graph0" class="graph" transform="scale(1 1) rotate(0) translate(4 223)">
<title>G</title>
<polygon fill="#ff7f50" stroke="transparent" points="-4,4 -4,-223 224,-223 224,4 -4,4"/>
<g id="clust1" class="cluster">
<title>cluster_list</title>
<polygon fill="#ff7f50" stroke="#800080" stroke-dasharray="5,2" points="46,-8 46,-154 212,-154 212,-8 46,-8"/>
</g>
<!-- node0x603000000040 -->
<g id="node1" class="node">
<title>node0x603000000040</title>
<path fill="#ffe4c4" stroke="#800000" d="M67.5,-88.5C67.5,-88.5 190.5,-88.5 190.5,-88.5 196.5,-88.5 202.5,-94.5 202.5,-100.5 202.5,-100.5 202.5,-133.5 202.5,-133.5 202.5,-139.5 196.5,-145.5 190.5,-145.5 190.5,-145.5 67.5,-145.5 67.5,-145.5 61.5,-145.5 55.5,-139.5 55.5,-133.5 55.5,-133.5 55.5,-100.5 55.5,-100.5 55.5,-94.5 61.5,-88.5 67.5,-88.5"/>
<text text-anchor="middle" x="129" y="-133.5" font-family="Times,serif" font-size="10.00">PTR: 0x603000000040</text>
<polyline fill="none" stroke="#800000" points="55.5,-126.5 202.5,-126.5 "/>
<text text-anchor="middle" x="129" y="-114.5" font-family="Times,serif" font-size="10.00">DATA: 2</text>
<polyline fill="none" stroke="#800000" points="55.5,-107.5 202.5,-107.5 "/>
<text text-anchor="middle" x="90.5" y="-95.5" font-family="Times,serif" font-size="10.00">LEFT: (nil)</text>
<polyline fill="none" stroke="#800000" points="125.5,-88.5 125.5,-107.5 "/>
<text text-anchor="middle" x="164" y="-95.5" font-family="Times,serif" font-size="10.00">RIGHT: (nil)</text>
</g>
<!-- null1 -->
<g id="node2" class="node">
<title>null1</title>
<ellipse fill="#bc8f8f" stroke="#800000" cx="87" cy="-34" rx="32.93" ry="18"/>
<text text-anchor="middle" x="87" y="-31.5" font-family="Times,serif" font-size="10.00">ПУСТО</text>
</g>
<!-- node0x603000000040&#45;&gt;null1 -->
<g id="edge1" class="edge">
<title>node0x603000000040&#45;&gt;null1</title>
<path fill="none" stroke="#000000" d="M114.55,-88.12C109.95,-79.25 104.88,-69.48 100.36,-60.77"/>
<polygon fill="#000000" stroke="#000000" points="103.43,-59.08 95.72,-51.81 97.21,-62.3 103.43,-59.08"/>
</g>
<!-- null2 -->
<g id="node3" class="node">
<title>null2</title>
<ellipse fill="#bc8f8f" stroke="#800000" cx="171" cy="-34" rx="32.93" ry="18"/>
<text text-anchor="middle" x="171" y="-31.5" font-family="Times,serif" font-size="10.00">ПУСТО</text>
</g>
<!-- node0x603000000040&#45;&gt;null2 -->
<g id="edge2" class="edge">
<title>node0x603000000040&#45;&gt;null2</title>
<path fill="none" stroke="#000000" d="M143.45,-88.12C148.05,-79.25 153.12,-69.48 157.64,-60.77"/>
<polygon fill="#000000" stroke="#000000" points="160.79,-62.3 162.28,-51.81 154.57,-59.08 160.79,-62.3"/>
</g>
<!-- All -->
<g id="node4" class="node">
<title>All</title>
<path fill="#ffe4c4" stroke="#800000" d="M12,-182.5C12,-182.5 182,-182.5 182,-182.5 188,-182.5 194,-188.5 194,-194.5 194,-194.5 194,-206.5 194,-206.5 194,-212.5 188,-218.5 182,-218.5 182,-218.5 12,-218.5 12,-218.5 6,-218.5 0,-212.5 0,-206.5 0,-206.5 0,-194.5 0,-194.5 0,-188.5 6,-182.5 12,-182.5"/>
<text text-anchor="middle" x="32" y="-198" font-family="Times,serif" font-size="10.00">HEADER</text>
<polyline fill="none" stroke="#800000" points="64,-182.5 64,-218.5 "/>
<text text-anchor="middle" x="129" y="-198" font-family="Times,serif" font-size="10.00">Root: 0x603000000040</text>
</g>
<!-- All&#45;&gt;node0x603000000040 -->
<g id="edge3" class="edge">
<title>All:f0&#45;&gt;node0x603000000040</title>
<path fill="none" stroke="#ffffff" d="M129,-182C129,-173.55 129,-164.47 129,-155.88"/>
<polygon fill="#ffffff" stroke="#ffffff" points="132.5,-155.72 129,-145.72 125.5,-155.72 132.5,-155.72"/>
</g>
</g>
</svg>
