<?xml version="1.0" encoding="UTF-8" standalone="no"?>
<!DOCTYPE svg PUBLIC "-//W3C//DTD SVG 1.1//EN"
 "http://www.w3.org/Graphics/SVG/1.1/DTD/svg11.dtd">
<!-- Generated by graphviz version 2.43.0 (0)
 -->
<!-- Title: G Pages: 1 -->
<svg width="271pt" height="321pt"
 viewBox="0.00 0.00 271.00 321.00" xmlns="http://www.w3.org/2000/svg" xmlns:xlink="http://www.w3.org/1999/xlink">
<g id="graph0" class="graph" transform="scale(1 1) rotate(0) translate(4 317)">
<title>G</title>
<polygon fill="#ff7f50" stroke="transparent" points="-4,4 -4,-317 267,-317 267,4 -4,4"/>
<g id="clust1" class="cluster">
<title>cluster_list</title>
<polygon fill="#ff7f50" stroke="#800080" stroke-dasharray="5,2" points="8,-8 8,-248 255,-248 255,-8 8,-8"/>
</g>
<!-- node0x603000000040 -->
<g id="node1" class="node">
<title>node0x603000000040</title>
<path fill="#ffe4c4" stroke="#800000" d="M41.5,-182.5C41.5,-182.5 228.5,-182.5 228.5,-182.5 234.5,-182.5 240.5,-188.5 240.5,-194.5 240.5,-194.5 240.5,-227.5 240.5,-227.5 240.5,-233.5 234.5,-239.5 228.5,-239.5 228.5,-239.5 41.5,-239.5 41.5,-239.5 35.5,-239.5 29.5,-233.5 29.5,-227.5 29.5,-227.5 29.5,-194.5 29.5,-194.5 29.5,-188.5 35.5,-182.5 41.5,-182.5"/>
<text text-anchor="middle" x="135" y="-227.5" font-family="Times,serif" font-size="10.00">PTR: 0x603000000040</text>
<polyline fill="none" stroke="#800000" points="29.5,-220.5 240.5,-220.5 "/>
<text text-anchor="middle" x="135" y="-208.5" font-family="Times,serif" font-size="10.00">DATA: 2</text>
<polyline fill="none" stroke="#800000" points="29.5,-201.5 240.5,-201.5 "/>
<text text-anchor="middle" x="96.5" y="-189.5" font-family="Times,serif" font-size="10.00">LEFT: 0x603000000070</text>
<polyline fill="none" stroke="#800000" points="163.5,-182.5 163.5,-201.5 "/>
<text text-anchor="middle" x="202" y="-189.5" font-family="Times,serif" font-size="10.00">RIGHT: (nil)</text>
</g>
<!-- node0x603000000070 -->
<g id="node2" class="node">
<title>node0x603000000070</title>
<path fill="#ffe4c4" stroke="#800000" d="M28.5,-88.5C28.5,-88.5 151.5,-88.5 151.5,-88.5 157.5,-88.5 163.5,-94.5 163.5,-100.5 163.5,-100.5 163.5,-133.5 163.5,-133.5 163.5,-139.5 157.5,-145.5 151.5,-145.5 151.5,-145.5 28.5,-145.5 28.5,-145.5 22.5,-145.5 16.5,-139.5 16.5,-133.5 16.5,-133.5 16.5,-100.5 16.5,-100.5 16.5,-94.5 22.5,-88.5 28.5,-88.5"/>
<text text-anchor="middle" x="90" y="-133.5" font-family="Times,serif" font-size="10.00">PTR: 0x603000000070</text>
<polyline fill="none" stroke="#800000" points="16.5,-126.5 163.5,-126.5 "/>
<text text-anchor="middle" x="90" y="-114.5" font-family="Times,serif" font-size="10.00">DATA: &#45;10</text>
<polyline fill="none" stroke="#800000" points="16.5,-107.5 163.5,-107.5 "/>
<text text-anchor="middle" x="51.5" y="-95.5" font-family="Times,serif" font-size="10.00">LEFT: (nil)</text>
<polyline fill="none" stroke="#800000" points="86.5,-88.5 86.5,-107.5 "/>
<text text-anchor="middle" x="125" y="-95.5" font-family="Times,serif" font-size="10.00">RIGHT: (nil)</text>
</g>
<!-- node0x603000000040&#45;&gt;node0x603000000070 -->
<g id="edge3" class="edge">
<title>node0x603000000040:f0&#45;&gt;node0x603000000070</title>
<path fill="none" stroke="#000000" d="M96,-182C96,-173.51 95.47,-164.42 94.73,-155.82"/>
<polygon fill="#000000" stroke="#000000" points="98.19,-155.28 93.73,-145.67 91.22,-155.96 98.19,-155.28"/>
</g>
<!-- null3 -->
<g id="node5" class="node">
<title>null3</title>
<ellipse fill="#bc8f8f" stroke="#800000" cx="214" cy="-117" rx="32.93" ry="18"/>
<text text-anchor="middle" x="214" y="-114.5" font-family="Times,serif" font-size="10.00">ПУСТО</text>
</g>
<!-- node0x603000000040&#45;&gt;null3 -->
<g id="edge4" class="edge">
<title>node0x603000000040&#45;&gt;null3</title>
<path fill="none" stroke="#000000" d="M158.7,-182.4C169.96,-169.28 183.27,-153.79 194.01,-141.28"/>
<polygon fill="#000000" stroke="#000000" points="196.79,-143.41 200.65,-133.55 191.48,-138.85 196.79,-143.41"/>
</g>
<!-- null1 -->
<g id="node3" class="node">
<title>null1</title>
<ellipse fill="#bc8f8f" stroke="#800000" cx="69" cy="-34" rx="32.93" ry="18"/>
<text text-anchor="middle" x="69" y="-31.5" font-family="Times,serif" font-size="10.00">ПУСТО</text>
</g>
<!-- node0x603000000070&#45;&gt;null1 -->
<g id="edge1" class="edge">
<title>node0x603000000070&#45;&gt;null1</title>
<path fill="none" stroke="#000000" d="M82.77,-88.12C80.58,-79.67 78.18,-70.39 76,-61.99"/>
<polygon fill="#000000" stroke="#000000" points="79.38,-61.09 73.48,-52.29 72.6,-62.85 79.38,-61.09"/>
</g>
<!-- null2 -->
<g id="node4" class="node">
<title>null2</title>
<ellipse fill="#bc8f8f" stroke="#800000" cx="153" cy="-34" rx="32.93" ry="18"/>
<text text-anchor="middle" x="153" y="-31.5" font-family="Times,serif" font-size="10.00">ПУСТО</text>
</g>
<!-- node0x603000000070&#45;&gt;null2 -->
<g id="edge2" class="edge">
<title>node0x603000000070&#45;&gt;null2</title>
<path fill="none" stroke="#000000" d="M111.68,-88.12C119.09,-78.59 127.31,-68.03 134.45,-58.85"/>
<polygon fill="#000000" stroke="#000000" points="137.28,-60.91 140.66,-50.87 131.75,-56.61 137.28,-60.91"/>
</g>
<!-- All -->
<g id="node6" class="node">
<title>All</title>
<path fill="#ffe4c4" stroke="#800000" d="M18,-276.5C18,-276.5 188,-276.5 188,-276.5 194,-276.5 200,-282.5 200,-288.5 200,-288.5 200,-300.5 200,-300.5 200,-306.5 194,-312.5 188,-312.5 188,-312.5 18,-312.5 18,-312.5 12,-312.5 6,-306.5 6,-300.5 6,-300.5 6,-288.5 6,-288.5 6,-282.5 12,-276.5 18,-276.5"/>
<text text-anchor="middle" x="38" y="-292" font-family="Times,serif" font-size="10.00">HEADER</text>
<polyline fill="none" stroke="#800000" points="70,-276.5 70,-312.5 "/>
<text text-anchor="middle" x="135" y="-292" font-family="Times,serif" font-size="10.00">Root: 0x603000000040</text>
</g>
<!-- All&#45;&gt;node0x603000000040 -->
<g id="edge5" class="edge">
<title>All:f0&#45;&gt;node0x603000000040</title>
<path fill="none" stroke="#ffffff" d="M135,-276C135,-267.55 135,-258.47 135,-249.88"/>
<polygon fill="#ffffff" stroke="#ffffff" points="138.5,-249.72 135,-239.72 131.5,-249.72 138.5,-249.72"/>
</g>
</g>
</svg>
