<?xml version="1.0" encoding="UTF-8" standalone="no"?>
<!DOCTYPE svg PUBLIC "-//W3C//DTD SVG 1.1//EN"
 "http://www.w3.org/Graphics/SVG/1.1/DTD/svg11.dtd">
<!-- Generated by graphviz version 2.43.0 (0)
 -->
<!-- Title: G Pages: 1 -->
<svg width="358pt" height="321pt"
 viewBox="0.00 0.00 358.00 321.00" xmlns="http://www.w3.org/2000/svg" xmlns:xlink="http://www.w3.org/1999/xlink">
<g id="graph0" class="graph" transform="scale(1 1) rotate(0) translate(4 317)">
<title>G</title>
<polygon fill="#ff7f50" stroke="transparent" points="-4,4 -4,-317 354,-317 354,4 -4,4"/>
<g id="clust1" class="cluster">
<title>cluster_list</title>
<polygon fill="#ff7f50" stroke="#800080" stroke-dasharray="5,2" points="8,-8 8,-248 342,-248 342,-8 8,-8"/>
</g>
<!-- node0x603000000040 -->
<g id="node1" class="node">
<title>node0x603000000040</title>
<path fill="#ffe4c4" stroke="#800000" d="M50.5,-182.5C50.5,-182.5 301.5,-182.5 301.5,-182.5 307.5,-182.5 313.5,-188.5 313.5,-194.5 313.5,-194.5 313.5,-227.5 313.5,-227.5 313.5,-233.5 307.5,-239.5 301.5,-239.5 301.5,-239.5 50.5,-239.5 50.5,-239.5 44.5,-239.5 38.5,-233.5 38.5,-227.5 38.5,-227.5 38.5,-194.5 38.5,-194.5 38.5,-188.5 44.5,-182.5 50.5,-182.5"/>
<text text-anchor="middle" x="176" y="-227.5" font-family="Times,serif" font-size="10.00">PTR: 0x603000000040</text>
<polyline fill="none" stroke="#800000" points="38.5,-220.5 313.5,-220.5 "/>
<text text-anchor="middle" x="176" y="-208.5" font-family="Times,serif" font-size="10.00">DATA: 2</text>
<polyline fill="none" stroke="#800000" points="38.5,-201.5 313.5,-201.5 "/>
<text text-anchor="middle" x="105.5" y="-189.5" font-family="Times,serif" font-size="10.00">LEFT: 0x603000000070</text>
<polyline fill="none" stroke="#800000" points="172.5,-182.5 172.5,-201.5 "/>
<text text-anchor="middle" x="243" y="-189.5" font-family="Times,serif" font-size="10.00">RIGHT: 0x6030000000a0</text>
</g>
<!-- node0x603000000070 -->
<g id="node2" class="node">
<title>node0x603000000070</title>
<path fill="#ffe4c4" stroke="#800000" d="M30.5,-88.5C30.5,-88.5 153.5,-88.5 153.5,-88.5 159.5,-88.5 165.5,-94.5 165.5,-100.5 165.5,-100.5 165.5,-133.5 165.5,-133.5 165.5,-139.5 159.5,-145.5 153.5,-145.5 153.5,-145.5 30.5,-145.5 30.5,-145.5 24.5,-145.5 18.5,-139.5 18.5,-133.5 18.5,-133.5 18.5,-100.5 18.5,-100.5 18.5,-94.5 24.5,-88.5 30.5,-88.5"/>
<text text-anchor="middle" x="92" y="-133.5" font-family="Times,serif" font-size="10.00">PTR: 0x603000000070</text>
<polyline fill="none" stroke="#800000" points="18.5,-126.5 165.5,-126.5 "/>
<text text-anchor="middle" x="92" y="-114.5" font-family="Times,serif" font-size="10.00">DATA: &#45;10</text>
<polyline fill="none" stroke="#800000" points="18.5,-107.5 165.5,-107.5 "/>
<text text-anchor="middle" x="53.5" y="-95.5" font-family="Times,serif" font-size="10.00">LEFT: (nil)</text>
<polyline fill="none" stroke="#800000" points="88.5,-88.5 88.5,-107.5 "/>
<text text-anchor="middle" x="127" y="-95.5" font-family="Times,serif" font-size="10.00">RIGHT: (nil)</text>
</g>
<!-- node0x603000000040&#45;&gt;node0x603000000070 -->
<g id="edge3" class="edge">
<title>node0x603000000040:f0&#45;&gt;node0x603000000070</title>
<path fill="none" stroke="#000000" d="M105,-182C105,-173.36 103.85,-164.2 102.23,-155.58"/>
<polygon fill="#000000" stroke="#000000" points="105.65,-154.85 100.16,-145.79 98.8,-156.3 105.65,-154.85"/>
</g>
<!-- node0x6030000000a0 -->
<g id="node5" class="node">
<title>node0x6030000000a0</title>
<path fill="#ffe4c4" stroke="#800000" d="M195.5,-88.5C195.5,-88.5 318.5,-88.5 318.5,-88.5 324.5,-88.5 330.5,-94.5 330.5,-100.5 330.5,-100.5 330.5,-133.5 330.5,-133.5 330.5,-139.5 324.5,-145.5 318.5,-145.5 318.5,-145.5 195.5,-145.5 195.5,-145.5 189.5,-145.5 183.5,-139.5 183.5,-133.5 183.5,-133.5 183.5,-100.5 183.5,-100.5 183.5,-94.5 189.5,-88.5 195.5,-88.5"/>
<text text-anchor="middle" x="257" y="-133.5" font-family="Times,serif" font-size="10.00">PTR: 0x6030000000a0</text>
<polyline fill="none" stroke="#800000" points="183.5,-126.5 330.5,-126.5 "/>
<text text-anchor="middle" x="257" y="-114.5" font-family="Times,serif" font-size="10.00">DATA: 10</text>
<polyline fill="none" stroke="#800000" points="183.5,-107.5 330.5,-107.5 "/>
<text text-anchor="middle" x="218.5" y="-95.5" font-family="Times,serif" font-size="10.00">LEFT: (nil)</text>
<polyline fill="none" stroke="#800000" points="253.5,-88.5 253.5,-107.5 "/>
<text text-anchor="middle" x="292" y="-95.5" font-family="Times,serif" font-size="10.00">RIGHT: (nil)</text>
</g>
<!-- node0x603000000040&#45;&gt;node0x6030000000a0 -->
<g id="edge6" class="edge">
<title>node0x603000000040:f1&#45;&gt;node0x6030000000a0</title>
<path fill="none" stroke="#000000" d="M243,-182C243,-173.33 244.24,-164.16 245.98,-155.54"/>
<polygon fill="#000000" stroke="#000000" points="249.4,-156.28 248.21,-145.75 242.58,-154.72 249.4,-156.28"/>
</g>
<!-- null1 -->
<g id="node3" class="node">
<title>null1</title>
<ellipse fill="#bc8f8f" stroke="#800000" cx="49" cy="-34" rx="32.93" ry="18"/>
<text text-anchor="middle" x="49" y="-31.5" font-family="Times,serif" font-size="10.00">ПУСТО</text>
</g>
<!-- node0x603000000070&#45;&gt;null1 -->
<g id="edge1" class="edge">
<title>node0x603000000070&#45;&gt;null1</title>
<path fill="none" stroke="#000000" d="M77.2,-88.12C72.49,-79.25 67.31,-69.48 62.68,-60.77"/>
<polygon fill="#000000" stroke="#000000" points="65.71,-59.01 57.93,-51.81 59.52,-62.29 65.71,-59.01"/>
</g>
<!-- null2 -->
<g id="node4" class="node">
<title>null2</title>
<ellipse fill="#bc8f8f" stroke="#800000" cx="133" cy="-34" rx="32.93" ry="18"/>
<text text-anchor="middle" x="133" y="-31.5" font-family="Times,serif" font-size="10.00">ПУСТО</text>
</g>
<!-- node0x603000000070&#45;&gt;null2 -->
<g id="edge2" class="edge">
<title>node0x603000000070&#45;&gt;null2</title>
<path fill="none" stroke="#000000" d="M106.11,-88.12C110.6,-79.25 115.55,-69.48 119.96,-60.77"/>
<polygon fill="#000000" stroke="#000000" points="123.1,-62.32 124.49,-51.81 116.85,-59.16 123.1,-62.32"/>
</g>
<!-- null3 -->
<g id="node6" class="node">
<title>null3</title>
<ellipse fill="#bc8f8f" stroke="#800000" cx="217" cy="-34" rx="32.93" ry="18"/>
<text text-anchor="middle" x="217" y="-31.5" font-family="Times,serif" font-size="10.00">ПУСТО</text>
</g>
<!-- node0x6030000000a0&#45;&gt;null3 -->
<g id="edge4" class="edge">
<title>node0x6030000000a0&#45;&gt;null3</title>
<path fill="none" stroke="#000000" d="M243.23,-88.12C238.9,-79.35 234.13,-69.69 229.86,-61.04"/>
<polygon fill="#000000" stroke="#000000" points="232.87,-59.23 225.3,-51.81 226.59,-62.33 232.87,-59.23"/>
</g>
<!-- null4 -->
<g id="node7" class="node">
<title>null4</title>
<ellipse fill="#bc8f8f" stroke="#800000" cx="301" cy="-34" rx="32.93" ry="18"/>
<text text-anchor="middle" x="301" y="-31.5" font-family="Times,serif" font-size="10.00">ПУСТО</text>
</g>
<!-- node0x6030000000a0&#45;&gt;null4 -->
<g id="edge5" class="edge">
<title>node0x6030000000a0&#45;&gt;null4</title>
<path fill="none" stroke="#000000" d="M272.14,-88.12C277.03,-79.12 282.43,-69.19 287.22,-60.37"/>
<polygon fill="#000000" stroke="#000000" points="290.43,-61.8 292.12,-51.34 284.28,-58.46 290.43,-61.8"/>
</g>
<!-- All -->
<g id="node8" class="node">
<title>All</title>
<path fill="#ffe4c4" stroke="#800000" d="M59,-276.5C59,-276.5 229,-276.5 229,-276.5 235,-276.5 241,-282.5 241,-288.5 241,-288.5 241,-300.5 241,-300.5 241,-306.5 235,-312.5 229,-312.5 229,-312.5 59,-312.5 59,-312.5 53,-312.5 47,-306.5 47,-300.5 47,-300.5 47,-288.5 47,-288.5 47,-282.5 53,-276.5 59,-276.5"/>
<text text-anchor="middle" x="79" y="-292" font-family="Times,serif" font-size="10.00">HEADER</text>
<polyline fill="none" stroke="#800000" points="111,-276.5 111,-312.5 "/>
<text text-anchor="middle" x="176" y="-292" font-family="Times,serif" font-size="10.00">Root: 0x603000000040</text>
</g>
<!-- All&#45;&gt;node0x603000000040 -->
<g id="edge7" class="edge">
<title>All:f0&#45;&gt;node0x603000000040</title>
<path fill="none" stroke="#ffffff" d="M176,-276C176,-267.55 176,-258.47 176,-249.88"/>
<polygon fill="#ffffff" stroke="#ffffff" points="179.5,-249.72 176,-239.72 172.5,-249.72 179.5,-249.72"/>
</g>
</g>
</svg>
