<?xml version="1.0" encoding="UTF-8" standalone="no"?>
<!DOCTYPE svg PUBLIC "-//W3C//DTD SVG 1.1//EN"
 "http://www.w3.org/Graphics/SVG/1.1/DTD/svg11.dtd">
<!-- Generated by graphviz version 2.43.0 (0)
 -->
<!-- Title: G Pages: 1 -->
<svg width="438pt" height="415pt"
 viewBox="0.00 0.00 438.00 415.00" xmlns="http://www.w3.org/2000/svg" xmlns:xlink="http://www.w3.org/1999/xlink">
<g id="graph0" class="graph" transform="scale(1 1) rotate(0) translate(4 411)">
<title>G</title>
<polygon fill="#ff7f50" stroke="transparent" points="-4,4 -4,-411 434,-411 434,4 -4,4"/>
<g id="clust1" class="cluster">
<title>cluster_list</title>
<polygon fill="#ff7f50" stroke="#800080" stroke-dasharray="5,2" points="8,-8 8,-342 422,-342 422,-8 8,-8"/>
</g>
<!-- node0x603000000040 -->
<g id="node1" class="node">
<title>node0x603000000040</title>
<path fill="#ffe4c4" stroke="#800000" d="M79.5,-276.5C79.5,-276.5 330.5,-276.5 330.5,-276.5 336.5,-276.5 342.5,-282.5 342.5,-288.5 342.5,-288.5 342.5,-321.5 342.5,-321.5 342.5,-327.5 336.5,-333.5 330.5,-333.5 330.5,-333.5 79.5,-333.5 79.5,-333.5 73.5,-333.5 67.5,-327.5 67.5,-321.5 67.5,-321.5 67.5,-288.5 67.5,-288.5 67.5,-282.5 73.5,-276.5 79.5,-276.5"/>
<text text-anchor="middle" x="205" y="-321.5" font-family="Times,serif" font-size="10.00">PTR: 0x603000000040</text>
<polyline fill="none" stroke="#800000" points="67.5,-314.5 342.5,-314.5 "/>
<text text-anchor="middle" x="205" y="-302.5" font-family="Times,serif" font-size="10.00">DATA: 2</text>
<polyline fill="none" stroke="#800000" points="67.5,-295.5 342.5,-295.5 "/>
<text text-anchor="middle" x="134.5" y="-283.5" font-family="Times,serif" font-size="10.00">LEFT: 0x603000000070</text>
<polyline fill="none" stroke="#800000" points="201.5,-276.5 201.5,-295.5 "/>
<text text-anchor="middle" x="272" y="-283.5" font-family="Times,serif" font-size="10.00">RIGHT: 0x6030000000a0</text>
</g>
<!-- node0x603000000070 -->
<g id="node2" class="node">
<title>node0x603000000070</title>
<path fill="#ffe4c4" stroke="#800000" d="M43.5,-182.5C43.5,-182.5 166.5,-182.5 166.5,-182.5 172.5,-182.5 178.5,-188.5 178.5,-194.5 178.5,-194.5 178.5,-227.5 178.5,-227.5 178.5,-233.5 172.5,-239.5 166.5,-239.5 166.5,-239.5 43.5,-239.5 43.5,-239.5 37.5,-239.5 31.5,-233.5 31.5,-227.5 31.5,-227.5 31.5,-194.5 31.5,-194.5 31.5,-188.5 37.5,-182.5 43.5,-182.5"/>
<text text-anchor="middle" x="105" y="-227.5" font-family="Times,serif" font-size="10.00">PTR: 0x603000000070</text>
<polyline fill="none" stroke="#800000" points="31.5,-220.5 178.5,-220.5 "/>
<text text-anchor="middle" x="105" y="-208.5" font-family="Times,serif" font-size="10.00">DATA: &#45;10</text>
<polyline fill="none" stroke="#800000" points="31.5,-201.5 178.5,-201.5 "/>
<text text-anchor="middle" x="66.5" y="-189.5" font-family="Times,serif" font-size="10.00">LEFT: (nil)</text>
<polyline fill="none" stroke="#800000" points="101.5,-182.5 101.5,-201.5 "/>
<text text-anchor="middle" x="140" y="-189.5" font-family="Times,serif" font-size="10.00">RIGHT: (nil)</text>
</g>
<!-- node0x603000000040&#45;&gt;node0x603000000070 -->
<g id="edge3" class="edge">
<title>node0x603000000040:f0&#45;&gt;node0x603000000070</title>
<path fill="none" stroke="#000000" d="M134,-276C134,-266.87 131.52,-257.61 128.01,-249.07"/>
<polygon fill="#000000" stroke="#000000" points="131.09,-247.38 123.69,-239.79 124.74,-250.33 131.09,-247.38"/>
</g>
<!-- node0x6030000000a0 -->
<g id="node5" class="node">
<title>node0x6030000000a0</title>
<path fill="#ffe4c4" stroke="#800000" d="M208.5,-182.5C208.5,-182.5 395.5,-182.5 395.5,-182.5 401.5,-182.5 407.5,-188.5 407.5,-194.5 407.5,-194.5 407.5,-227.5 407.5,-227.5 407.5,-233.5 401.5,-239.5 395.5,-239.5 395.5,-239.5 208.5,-239.5 208.5,-239.5 202.5,-239.5 196.5,-233.5 196.5,-227.5 196.5,-227.5 196.5,-194.5 196.5,-194.5 196.5,-188.5 202.5,-182.5 208.5,-182.5"/>
<text text-anchor="middle" x="302" y="-227.5" font-family="Times,serif" font-size="10.00">PTR: 0x6030000000a0</text>
<polyline fill="none" stroke="#800000" points="196.5,-220.5 407.5,-220.5 "/>
<text text-anchor="middle" x="302" y="-208.5" font-family="Times,serif" font-size="10.00">DATA: 10</text>
<polyline fill="none" stroke="#800000" points="196.5,-201.5 407.5,-201.5 "/>
<text text-anchor="middle" x="263.5" y="-189.5" font-family="Times,serif" font-size="10.00">LEFT: 0x6030000000d0</text>
<polyline fill="none" stroke="#800000" points="330.5,-182.5 330.5,-201.5 "/>
<text text-anchor="middle" x="369" y="-189.5" font-family="Times,serif" font-size="10.00">RIGHT: (nil)</text>
</g>
<!-- node0x603000000040&#45;&gt;node0x6030000000a0 -->
<g id="edge8" class="edge">
<title>node0x603000000040:f1&#45;&gt;node0x6030000000a0</title>
<path fill="none" stroke="#000000" d="M272,-276C272,-266.72 274.62,-257.33 278.31,-248.72"/>
<polygon fill="#000000" stroke="#000000" points="281.46,-250.24 282.66,-239.71 275.16,-247.19 281.46,-250.24"/>
</g>
<!-- null1 -->
<g id="node3" class="node">
<title>null1</title>
<ellipse fill="#bc8f8f" stroke="#800000" cx="49" cy="-117" rx="32.93" ry="18"/>
<text text-anchor="middle" x="49" y="-114.5" font-family="Times,serif" font-size="10.00">ПУСТО</text>
</g>
<!-- node0x603000000070&#45;&gt;null1 -->
<g id="edge1" class="edge">
<title>node0x603000000070&#45;&gt;null1</title>
<path fill="none" stroke="#000000" d="M88.2,-182.4C80.6,-169.91 71.68,-155.26 64.27,-143.09"/>
<polygon fill="#000000" stroke="#000000" points="67.14,-141.07 58.95,-134.35 61.16,-144.71 67.14,-141.07"/>
</g>
<!-- null2 -->
<g id="node4" class="node">
<title>null2</title>
<ellipse fill="#bc8f8f" stroke="#800000" cx="133" cy="-117" rx="32.93" ry="18"/>
<text text-anchor="middle" x="133" y="-114.5" font-family="Times,serif" font-size="10.00">ПУСТО</text>
</g>
<!-- node0x603000000070&#45;&gt;null2 -->
<g id="edge2" class="edge">
<title>node0x603000000070&#45;&gt;null2</title>
<path fill="none" stroke="#000000" d="M113.4,-182.4C117.04,-170.44 121.28,-156.51 124.89,-144.66"/>
<polygon fill="#000000" stroke="#000000" points="128.3,-145.48 127.86,-134.89 121.6,-143.44 128.3,-145.48"/>
</g>
<!-- node0x6030000000d0 -->
<g id="node6" class="node">
<title>node0x6030000000d0</title>
<path fill="#ffe4c4" stroke="#800000" d="M195.5,-88.5C195.5,-88.5 318.5,-88.5 318.5,-88.5 324.5,-88.5 330.5,-94.5 330.5,-100.5 330.5,-100.5 330.5,-133.5 330.5,-133.5 330.5,-139.5 324.5,-145.5 318.5,-145.5 318.5,-145.5 195.5,-145.5 195.5,-145.5 189.5,-145.5 183.5,-139.5 183.5,-133.5 183.5,-133.5 183.5,-100.5 183.5,-100.5 183.5,-94.5 189.5,-88.5 195.5,-88.5"/>
<text text-anchor="middle" x="257" y="-133.5" font-family="Times,serif" font-size="10.00">PTR: 0x6030000000d0</text>
<polyline fill="none" stroke="#800000" points="183.5,-126.5 330.5,-126.5 "/>
<text text-anchor="middle" x="257" y="-114.5" font-family="Times,serif" font-size="10.00">DATA: 3</text>
<polyline fill="none" stroke="#800000" points="183.5,-107.5 330.5,-107.5 "/>
<text text-anchor="middle" x="218.5" y="-95.5" font-family="Times,serif" font-size="10.00">LEFT: (nil)</text>
<polyline fill="none" stroke="#800000" points="253.5,-88.5 253.5,-107.5 "/>
<text text-anchor="middle" x="292" y="-95.5" font-family="Times,serif" font-size="10.00">RIGHT: (nil)</text>
</g>
<!-- node0x6030000000a0&#45;&gt;node0x6030000000d0 -->
<g id="edge6" class="edge">
<title>node0x6030000000a0:f0&#45;&gt;node0x6030000000d0</title>
<path fill="none" stroke="#000000" d="M263,-182C263,-173.51 262.47,-164.42 261.73,-155.82"/>
<polygon fill="#000000" stroke="#000000" points="265.19,-155.28 260.73,-145.67 258.22,-155.96 265.19,-155.28"/>
</g>
<!-- null5 -->
<g id="node9" class="node">
<title>null5</title>
<ellipse fill="#bc8f8f" stroke="#800000" cx="381" cy="-117" rx="32.93" ry="18"/>
<text text-anchor="middle" x="381" y="-114.5" font-family="Times,serif" font-size="10.00">ПУСТО</text>
</g>
<!-- node0x6030000000a0&#45;&gt;null5 -->
<g id="edge7" class="edge">
<title>node0x6030000000a0&#45;&gt;null5</title>
<path fill="none" stroke="#000000" d="M325.7,-182.4C336.96,-169.28 350.27,-153.79 361.01,-141.28"/>
<polygon fill="#000000" stroke="#000000" points="363.79,-143.41 367.65,-133.55 358.48,-138.85 363.79,-143.41"/>
</g>
<!-- null3 -->
<g id="node7" class="node">
<title>null3</title>
<ellipse fill="#bc8f8f" stroke="#800000" cx="215" cy="-34" rx="32.93" ry="18"/>
<text text-anchor="middle" x="215" y="-31.5" font-family="Times,serif" font-size="10.00">ПУСТО</text>
</g>
<!-- node0x6030000000d0&#45;&gt;null3 -->
<g id="edge4" class="edge">
<title>node0x6030000000d0&#45;&gt;null3</title>
<path fill="none" stroke="#000000" d="M242.55,-88.12C237.95,-79.25 232.88,-69.48 228.36,-60.77"/>
<polygon fill="#000000" stroke="#000000" points="231.43,-59.08 223.72,-51.81 225.21,-62.3 231.43,-59.08"/>
</g>
<!-- null4 -->
<g id="node8" class="node">
<title>null4</title>
<ellipse fill="#bc8f8f" stroke="#800000" cx="299" cy="-34" rx="32.93" ry="18"/>
<text text-anchor="middle" x="299" y="-31.5" font-family="Times,serif" font-size="10.00">ПУСТО</text>
</g>
<!-- node0x6030000000d0&#45;&gt;null4 -->
<g id="edge5" class="edge">
<title>node0x6030000000d0&#45;&gt;null4</title>
<path fill="none" stroke="#000000" d="M271.45,-88.12C276.05,-79.25 281.12,-69.48 285.64,-60.77"/>
<polygon fill="#000000" stroke="#000000" points="288.79,-62.3 290.28,-51.81 282.57,-59.08 288.79,-62.3"/>
</g>
<!-- All -->
<g id="node10" class="node">
<title>All</title>
<path fill="#ffe4c4" stroke="#800000" d="M88,-370.5C88,-370.5 258,-370.5 258,-370.5 264,-370.5 270,-376.5 270,-382.5 270,-382.5 270,-394.5 270,-394.5 270,-400.5 264,-406.5 258,-406.5 258,-406.5 88,-406.5 88,-406.5 82,-406.5 76,-400.5 76,-394.5 76,-394.5 76,-382.5 76,-382.5 76,-376.5 82,-370.5 88,-370.5"/>
<text text-anchor="middle" x="108" y="-386" font-family="Times,serif" font-size="10.00">HEADER</text>
<polyline fill="none" stroke="#800000" points="140,-370.5 140,-406.5 "/>
<text text-anchor="middle" x="205" y="-386" font-family="Times,serif" font-size="10.00">Root: 0x603000000040</text>
</g>
<!-- All&#45;&gt;node0x603000000040 -->
<g id="edge9" class="edge">
<title>All:f0&#45;&gt;node0x603000000040</title>
<path fill="none" stroke="#ffffff" d="M205,-370C205,-361.55 205,-352.47 205,-343.88"/>
<polygon fill="#ffffff" stroke="#ffffff" points="208.5,-343.72 205,-333.72 201.5,-343.72 208.5,-343.72"/>
</g>
</g>
</svg>
