<?xml version="1.0" encoding="UTF-8" standalone="no"?>
<!DOCTYPE svg PUBLIC "-//W3C//DTD SVG 1.1//EN"
 "http://www.w3.org/Graphics/SVG/1.1/DTD/svg11.dtd">
<!-- Generated by graphviz version 2.43.0 (0)
 -->
<!-- Title: G Pages: 1 -->
<svg width="502pt" height="509pt"
 viewBox="0.00 0.00 502.00 509.00" xmlns="http://www.w3.org/2000/svg" xmlns:xlink="http://www.w3.org/1999/xlink">
<g id="graph0" class="graph" transform="scale(1 1) rotate(0) translate(4 505)">
<title>G</title>
<polygon fill="#ff7f50" stroke="transparent" points="-4,4 -4,-505 498,-505 498,4 -4,4"/>
<g id="clust1" class="cluster">
<title>cluster_list</title>
<polygon fill="#ff7f50" stroke="#800080" stroke-dasharray="5,2" points="8,-8 8,-436 486,-436 486,-8 8,-8"/>
</g>
<!-- node0x603000000040 -->
<g id="node1" class="node">
<title>node0x603000000040</title>
<path fill="#ffe4c4" stroke="#800000" d="M106.5,-370.5C106.5,-370.5 357.5,-370.5 357.5,-370.5 363.5,-370.5 369.5,-376.5 369.5,-382.5 369.5,-382.5 369.5,-415.5 369.5,-415.5 369.5,-421.5 363.5,-427.5 357.5,-427.5 357.5,-427.5 106.5,-427.5 106.5,-427.5 100.5,-427.5 94.5,-421.5 94.5,-415.5 94.5,-415.5 94.5,-382.5 94.5,-382.5 94.5,-376.5 100.5,-370.5 106.5,-370.5"/>
<text text-anchor="middle" x="232" y="-415.5" font-family="Times,serif" font-size="10.00">PTR: 0x603000000040</text>
<polyline fill="none" stroke="#800000" points="94.5,-408.5 369.5,-408.5 "/>
<text text-anchor="middle" x="232" y="-396.5" font-family="Times,serif" font-size="10.00">DATA: 2</text>
<polyline fill="none" stroke="#800000" points="94.5,-389.5 369.5,-389.5 "/>
<text text-anchor="middle" x="161.5" y="-377.5" font-family="Times,serif" font-size="10.00">LEFT: 0x603000000070</text>
<polyline fill="none" stroke="#800000" points="228.5,-370.5 228.5,-389.5 "/>
<text text-anchor="middle" x="299" y="-377.5" font-family="Times,serif" font-size="10.00">RIGHT: 0x6030000000a0</text>
</g>
<!-- node0x603000000070 -->
<g id="node2" class="node">
<title>node0x603000000070</title>
<path fill="#ffe4c4" stroke="#800000" d="M70.5,-276.5C70.5,-276.5 193.5,-276.5 193.5,-276.5 199.5,-276.5 205.5,-282.5 205.5,-288.5 205.5,-288.5 205.5,-321.5 205.5,-321.5 205.5,-327.5 199.5,-333.5 193.5,-333.5 193.5,-333.5 70.5,-333.5 70.5,-333.5 64.5,-333.5 58.5,-327.5 58.5,-321.5 58.5,-321.5 58.5,-288.5 58.5,-288.5 58.5,-282.5 64.5,-276.5 70.5,-276.5"/>
<text text-anchor="middle" x="132" y="-321.5" font-family="Times,serif" font-size="10.00">PTR: 0x603000000070</text>
<polyline fill="none" stroke="#800000" points="58.5,-314.5 205.5,-314.5 "/>
<text text-anchor="middle" x="132" y="-302.5" font-family="Times,serif" font-size="10.00">DATA: &#45;10</text>
<polyline fill="none" stroke="#800000" points="58.5,-295.5 205.5,-295.5 "/>
<text text-anchor="middle" x="93.5" y="-283.5" font-family="Times,serif" font-size="10.00">LEFT: (nil)</text>
<polyline fill="none" stroke="#800000" points="128.5,-276.5 128.5,-295.5 "/>
<text text-anchor="middle" x="167" y="-283.5" font-family="Times,serif" font-size="10.00">RIGHT: (nil)</text>
</g>
<!-- node0x603000000040&#45;&gt;node0x603000000070 -->
<g id="edge3" class="edge">
<title>node0x603000000040:f0&#45;&gt;node0x603000000070</title>
<path fill="none" stroke="#000000" d="M161,-370C161,-360.87 158.52,-351.61 155.01,-343.07"/>
<polygon fill="#000000" stroke="#000000" points="158.09,-341.38 150.69,-333.79 151.74,-344.33 158.09,-341.38"/>
</g>
<!-- node0x6030000000a0 -->
<g id="node5" class="node">
<title>node0x6030000000a0</title>
<path fill="#ffe4c4" stroke="#800000" d="M235.5,-276.5C235.5,-276.5 422.5,-276.5 422.5,-276.5 428.5,-276.5 434.5,-282.5 434.5,-288.5 434.5,-288.5 434.5,-321.5 434.5,-321.5 434.5,-327.5 428.5,-333.5 422.5,-333.5 422.5,-333.5 235.5,-333.5 235.5,-333.5 229.5,-333.5 223.5,-327.5 223.5,-321.5 223.5,-321.5 223.5,-288.5 223.5,-288.5 223.5,-282.5 229.5,-276.5 235.5,-276.5"/>
<text text-anchor="middle" x="329" y="-321.5" font-family="Times,serif" font-size="10.00">PTR: 0x6030000000a0</text>
<polyline fill="none" stroke="#800000" points="223.5,-314.5 434.5,-314.5 "/>
<text text-anchor="middle" x="329" y="-302.5" font-family="Times,serif" font-size="10.00">DATA: 10</text>
<polyline fill="none" stroke="#800000" points="223.5,-295.5 434.5,-295.5 "/>
<text text-anchor="middle" x="290.5" y="-283.5" font-family="Times,serif" font-size="10.00">LEFT: 0x6030000000d0</text>
<polyline fill="none" stroke="#800000" points="357.5,-276.5 357.5,-295.5 "/>
<text text-anchor="middle" x="396" y="-283.5" font-family="Times,serif" font-size="10.00">RIGHT: (nil)</text>
</g>
<!-- node0x603000000040&#45;&gt;node0x6030000000a0 -->
<g id="edge10" class="edge">
<title>node0x603000000040:f1&#45;&gt;node0x6030000000a0</title>
<path fill="none" stroke="#000000" d="M299,-370C299,-360.72 301.62,-351.33 305.31,-342.72"/>
<polygon fill="#000000" stroke="#000000" points="308.46,-344.24 309.66,-333.71 302.16,-341.19 308.46,-344.24"/>
</g>
<!-- null1 -->
<g id="node3" class="node">
<title>null1</title>
<ellipse fill="#bc8f8f" stroke="#800000" cx="49" cy="-211" rx="32.93" ry="18"/>
<text text-anchor="middle" x="49" y="-208.5" font-family="Times,serif" font-size="10.00">ПУСТО</text>
</g>
<!-- node0x603000000070&#45;&gt;null1 -->
<g id="edge1" class="edge">
<title>node0x603000000070&#45;&gt;null1</title>
<path fill="none" stroke="#000000" d="M107.1,-276.4C95.27,-263.28 81.28,-247.79 70,-235.28"/>
<polygon fill="#000000" stroke="#000000" points="72.32,-232.63 63.03,-227.55 67.13,-237.32 72.32,-232.63"/>
</g>
<!-- null2 -->
<g id="node4" class="node">
<title>null2</title>
<ellipse fill="#bc8f8f" stroke="#800000" cx="133" cy="-211" rx="32.93" ry="18"/>
<text text-anchor="middle" x="133" y="-208.5" font-family="Times,serif" font-size="10.00">ПУСТО</text>
</g>
<!-- node0x603000000070&#45;&gt;null2 -->
<g id="edge2" class="edge">
<title>node0x603000000070&#45;&gt;null2</title>
<path fill="none" stroke="#000000" d="M132.3,-276.4C132.43,-264.65 132.58,-250.98 132.7,-239.26"/>
<polygon fill="#000000" stroke="#000000" points="136.2,-239.2 132.81,-229.16 129.2,-239.13 136.2,-239.2"/>
</g>
<!-- node0x6030000000d0 -->
<g id="node6" class="node">
<title>node0x6030000000d0</title>
<path fill="#ffe4c4" stroke="#800000" d="M195.5,-182.5C195.5,-182.5 382.5,-182.5 382.5,-182.5 388.5,-182.5 394.5,-188.5 394.5,-194.5 394.5,-194.5 394.5,-227.5 394.5,-227.5 394.5,-233.5 388.5,-239.5 382.5,-239.5 382.5,-239.5 195.5,-239.5 195.5,-239.5 189.5,-239.5 183.5,-233.5 183.5,-227.5 183.5,-227.5 183.5,-194.5 183.5,-194.5 183.5,-188.5 189.5,-182.5 195.5,-182.5"/>
<text text-anchor="middle" x="289" y="-227.5" font-family="Times,serif" font-size="10.00">PTR: 0x6030000000d0</text>
<polyline fill="none" stroke="#800000" points="183.5,-220.5 394.5,-220.5 "/>
<text text-anchor="middle" x="289" y="-208.5" font-family="Times,serif" font-size="10.00">DATA: 3</text>
<polyline fill="none" stroke="#800000" points="183.5,-201.5 394.5,-201.5 "/>
<text text-anchor="middle" x="218.5" y="-189.5" font-family="Times,serif" font-size="10.00">LEFT: (nil)</text>
<polyline fill="none" stroke="#800000" points="253.5,-182.5 253.5,-201.5 "/>
<text text-anchor="middle" x="324" y="-189.5" font-family="Times,serif" font-size="10.00">RIGHT: 0x603000000130</text>
</g>
<!-- node0x6030000000a0&#45;&gt;node0x6030000000d0 -->
<g id="edge8" class="edge">
<title>node0x6030000000a0:f0&#45;&gt;node0x6030000000d0</title>
<path fill="none" stroke="#000000" d="M290,-276C290,-267.55 289.91,-258.47 289.79,-249.88"/>
<polygon fill="#000000" stroke="#000000" points="293.28,-249.66 289.62,-239.72 286.29,-249.78 293.28,-249.66"/>
</g>
<!-- null6 -->
<g id="node11" class="node">
<title>null6</title>
<ellipse fill="#bc8f8f" stroke="#800000" cx="445" cy="-211" rx="32.93" ry="18"/>
<text text-anchor="middle" x="445" y="-208.5" font-family="Times,serif" font-size="10.00">ПУСТО</text>
</g>
<!-- node0x6030000000a0&#45;&gt;null6 -->
<g id="edge9" class="edge">
<title>node0x6030000000a0&#45;&gt;null6</title>
<path fill="none" stroke="#000000" d="M363.8,-276.4C381.53,-262.33 402.73,-245.53 419.02,-232.61"/>
<polygon fill="#000000" stroke="#000000" points="421.38,-235.2 427.04,-226.24 417.03,-229.71 421.38,-235.2"/>
</g>
<!-- null3 -->
<g id="node7" class="node">
<title>null3</title>
<ellipse fill="#bc8f8f" stroke="#800000" cx="239" cy="-117" rx="32.93" ry="18"/>
<text text-anchor="middle" x="239" y="-114.5" font-family="Times,serif" font-size="10.00">ПУСТО</text>
</g>
<!-- node0x6030000000d0&#45;&gt;null3 -->
<g id="edge4" class="edge">
<title>node0x6030000000d0&#45;&gt;null3</title>
<path fill="none" stroke="#000000" d="M274,-182.4C267.28,-170.03 259.41,-155.55 252.83,-143.45"/>
<polygon fill="#000000" stroke="#000000" points="255.74,-141.46 247.88,-134.35 249.58,-144.81 255.74,-141.46"/>
</g>
<!-- node0x603000000130 -->
<g id="node8" class="node">
<title>node0x603000000130</title>
<path fill="#ffe4c4" stroke="#800000" d="M301.5,-88.5C301.5,-88.5 424.5,-88.5 424.5,-88.5 430.5,-88.5 436.5,-94.5 436.5,-100.5 436.5,-100.5 436.5,-133.5 436.5,-133.5 436.5,-139.5 430.5,-145.5 424.5,-145.5 424.5,-145.5 301.5,-145.5 301.5,-145.5 295.5,-145.5 289.5,-139.5 289.5,-133.5 289.5,-133.5 289.5,-100.5 289.5,-100.5 289.5,-94.5 295.5,-88.5 301.5,-88.5"/>
<text text-anchor="middle" x="363" y="-133.5" font-family="Times,serif" font-size="10.00">PTR: 0x603000000130</text>
<polyline fill="none" stroke="#800000" points="289.5,-126.5 436.5,-126.5 "/>
<text text-anchor="middle" x="363" y="-114.5" font-family="Times,serif" font-size="10.00">DATA: 4</text>
<polyline fill="none" stroke="#800000" points="289.5,-107.5 436.5,-107.5 "/>
<text text-anchor="middle" x="324.5" y="-95.5" font-family="Times,serif" font-size="10.00">LEFT: (nil)</text>
<polyline fill="none" stroke="#800000" points="359.5,-88.5 359.5,-107.5 "/>
<text text-anchor="middle" x="398" y="-95.5" font-family="Times,serif" font-size="10.00">RIGHT: (nil)</text>
</g>
<!-- node0x6030000000d0&#45;&gt;node0x603000000130 -->
<g id="edge7" class="edge">
<title>node0x6030000000d0:f1&#45;&gt;node0x603000000130</title>
<path fill="none" stroke="#000000" d="M324,-182C324,-172.25 327.34,-162.72 332.07,-154.12"/>
<polygon fill="#000000" stroke="#000000" points="335.11,-155.86 337.42,-145.52 329.17,-152.16 335.11,-155.86"/>
</g>
<!-- null4 -->
<g id="node9" class="node">
<title>null4</title>
<ellipse fill="#bc8f8f" stroke="#800000" cx="321" cy="-34" rx="32.93" ry="18"/>
<text text-anchor="middle" x="321" y="-31.5" font-family="Times,serif" font-size="10.00">ПУСТО</text>
</g>
<!-- node0x603000000130&#45;&gt;null4 -->
<g id="edge5" class="edge">
<title>node0x603000000130&#45;&gt;null4</title>
<path fill="none" stroke="#000000" d="M348.55,-88.12C343.95,-79.25 338.88,-69.48 334.36,-60.77"/>
<polygon fill="#000000" stroke="#000000" points="337.43,-59.08 329.72,-51.81 331.21,-62.3 337.43,-59.08"/>
</g>
<!-- null5 -->
<g id="node10" class="node">
<title>null5</title>
<ellipse fill="#bc8f8f" stroke="#800000" cx="405" cy="-34" rx="32.93" ry="18"/>
<text text-anchor="middle" x="405" y="-31.5" font-family="Times,serif" font-size="10.00">ПУСТО</text>
</g>
<!-- node0x603000000130&#45;&gt;null5 -->
<g id="edge6" class="edge">
<title>node0x603000000130&#45;&gt;null5</title>
<path fill="none" stroke="#000000" d="M377.45,-88.12C382.05,-79.25 387.12,-69.48 391.64,-60.77"/>
<polygon fill="#000000" stroke="#000000" points="394.79,-62.3 396.28,-51.81 388.57,-59.08 394.79,-62.3"/>
</g>
<!-- All -->
<g id="node12" class="node">
<title>All</title>
<path fill="#ffe4c4" stroke="#800000" d="M115,-464.5C115,-464.5 285,-464.5 285,-464.5 291,-464.5 297,-470.5 297,-476.5 297,-476.5 297,-488.5 297,-488.5 297,-494.5 291,-500.5 285,-500.5 285,-500.5 115,-500.5 115,-500.5 109,-500.5 103,-494.5 103,-488.5 103,-488.5 103,-476.5 103,-476.5 103,-470.5 109,-464.5 115,-464.5"/>
<text text-anchor="middle" x="135" y="-480" font-family="Times,serif" font-size="10.00">HEADER</text>
<polyline fill="none" stroke="#800000" points="167,-464.5 167,-500.5 "/>
<text text-anchor="middle" x="232" y="-480" font-family="Times,serif" font-size="10.00">Root: 0x603000000040</text>
</g>
<!-- All&#45;&gt;node0x603000000040 -->
<g id="edge11" class="edge">
<title>All:f0&#45;&gt;node0x603000000040</title>
<path fill="none" stroke="#ffffff" d="M232,-464C232,-455.55 232,-446.47 232,-437.88"/>
<polygon fill="#ffffff" stroke="#ffffff" points="235.5,-437.72 232,-427.72 228.5,-437.72 235.5,-437.72"/>
</g>
</g>
</svg>
