<?xml version="1.0" encoding="UTF-8" standalone="no"?>
<!DOCTYPE svg PUBLIC "-//W3C//DTD SVG 1.1//EN"
 "http://www.w3.org/Graphics/SVG/1.1/DTD/svg11.dtd">
<!-- Generated by graphviz version 2.43.0 (0)
 -->
<!-- Title: G Pages: 1 -->
<svg width="583pt" height="509pt"
 viewBox="0.00 0.00 583.00 509.00" xmlns="http://www.w3.org/2000/svg" xmlns:xlink="http://www.w3.org/1999/xlink">
<g id="graph0" class="graph" transform="scale(1 1) rotate(0) translate(4 505)">
<title>G</title>
<polygon fill="#ff7f50" stroke="transparent" points="-4,4 -4,-505 579,-505 579,4 -4,4"/>
<g id="clust1" class="cluster">
<title>cluster_list</title>
<polygon fill="#ff7f50" stroke="#800080" stroke-dasharray="5,2" points="8,-8 8,-436 567,-436 567,-8 8,-8"/>
</g>
<!-- node0x603000000040 -->
<g id="node1" class="node">
<title>node0x603000000040</title>
<path fill="#ffe4c4" stroke="#800000" d="M149.5,-370.5C149.5,-370.5 400.5,-370.5 400.5,-370.5 406.5,-370.5 412.5,-376.5 412.5,-382.5 412.5,-382.5 412.5,-415.5 412.5,-415.5 412.5,-421.5 406.5,-427.5 400.5,-427.5 400.5,-427.5 149.5,-427.5 149.5,-427.5 143.5,-427.5 137.5,-421.5 137.5,-415.5 137.5,-415.5 137.5,-382.5 137.5,-382.5 137.5,-376.5 143.5,-370.5 149.5,-370.5"/>
<text text-anchor="middle" x="275" y="-415.5" font-family="Times,serif" font-size="10.00">PTR: 0x603000000040</text>
<polyline fill="none" stroke="#800000" points="137.5,-408.5 412.5,-408.5 "/>
<text text-anchor="middle" x="275" y="-396.5" font-family="Times,serif" font-size="10.00">DATA: 2</text>
<polyline fill="none" stroke="#800000" points="137.5,-389.5 412.5,-389.5 "/>
<text text-anchor="middle" x="204.5" y="-377.5" font-family="Times,serif" font-size="10.00">LEFT: 0x603000000070</text>
<polyline fill="none" stroke="#800000" points="271.5,-370.5 271.5,-389.5 "/>
<text text-anchor="middle" x="342" y="-377.5" font-family="Times,serif" font-size="10.00">RIGHT: 0x6030000000a0</text>
</g>
<!-- node0x603000000070 -->
<g id="node2" class="node">
<title>node0x603000000070</title>
<path fill="#ffe4c4" stroke="#800000" d="M44.5,-276.5C44.5,-276.5 231.5,-276.5 231.5,-276.5 237.5,-276.5 243.5,-282.5 243.5,-288.5 243.5,-288.5 243.5,-321.5 243.5,-321.5 243.5,-327.5 237.5,-333.5 231.5,-333.5 231.5,-333.5 44.5,-333.5 44.5,-333.5 38.5,-333.5 32.5,-327.5 32.5,-321.5 32.5,-321.5 32.5,-288.5 32.5,-288.5 32.5,-282.5 38.5,-276.5 44.5,-276.5"/>
<text text-anchor="middle" x="138" y="-321.5" font-family="Times,serif" font-size="10.00">PTR: 0x603000000070</text>
<polyline fill="none" stroke="#800000" points="32.5,-314.5 243.5,-314.5 "/>
<text text-anchor="middle" x="138" y="-302.5" font-family="Times,serif" font-size="10.00">DATA: &#45;10</text>
<polyline fill="none" stroke="#800000" points="32.5,-295.5 243.5,-295.5 "/>
<text text-anchor="middle" x="67.5" y="-283.5" font-family="Times,serif" font-size="10.00">LEFT: (nil)</text>
<polyline fill="none" stroke="#800000" points="102.5,-276.5 102.5,-295.5 "/>
<text text-anchor="middle" x="173" y="-283.5" font-family="Times,serif" font-size="10.00">RIGHT: 0x603000000160</text>
</g>
<!-- node0x603000000040&#45;&gt;node0x603000000070 -->
<g id="edge5" class="edge">
<title>node0x603000000040:f0&#45;&gt;node0x603000000070</title>
<path fill="none" stroke="#000000" d="M136,-380C119.66,-380 120.04,-361.75 124.57,-343.37"/>
<polygon fill="#000000" stroke="#000000" points="127.99,-344.13 127.34,-333.55 121.26,-342.23 127.99,-344.13"/>
</g>
<!-- node0x6030000000a0 -->
<g id="node7" class="node">
<title>node0x6030000000a0</title>
<path fill="#ffe4c4" stroke="#800000" d="M315.5,-276.5C315.5,-276.5 502.5,-276.5 502.5,-276.5 508.5,-276.5 514.5,-282.5 514.5,-288.5 514.5,-288.5 514.5,-321.5 514.5,-321.5 514.5,-327.5 508.5,-333.5 502.5,-333.5 502.5,-333.5 315.5,-333.5 315.5,-333.5 309.5,-333.5 303.5,-327.5 303.5,-321.5 303.5,-321.5 303.5,-288.5 303.5,-288.5 303.5,-282.5 309.5,-276.5 315.5,-276.5"/>
<text text-anchor="middle" x="409" y="-321.5" font-family="Times,serif" font-size="10.00">PTR: 0x6030000000a0</text>
<polyline fill="none" stroke="#800000" points="303.5,-314.5 514.5,-314.5 "/>
<text text-anchor="middle" x="409" y="-302.5" font-family="Times,serif" font-size="10.00">DATA: 10</text>
<polyline fill="none" stroke="#800000" points="303.5,-295.5 514.5,-295.5 "/>
<text text-anchor="middle" x="370.5" y="-283.5" font-family="Times,serif" font-size="10.00">LEFT: 0x6030000000d0</text>
<polyline fill="none" stroke="#800000" points="437.5,-276.5 437.5,-295.5 "/>
<text text-anchor="middle" x="476" y="-283.5" font-family="Times,serif" font-size="10.00">RIGHT: (nil)</text>
</g>
<!-- node0x603000000040&#45;&gt;node0x6030000000a0 -->
<g id="edge12" class="edge">
<title>node0x603000000040:f1&#45;&gt;node0x6030000000a0</title>
<path fill="none" stroke="#000000" d="M414,-380C430.45,-380 429.24,-361.58 423.89,-343.12"/>
<polygon fill="#000000" stroke="#000000" points="427.21,-341.99 420.8,-333.55 420.55,-344.15 427.21,-341.99"/>
</g>
<!-- null1 -->
<g id="node3" class="node">
<title>null1</title>
<ellipse fill="#bc8f8f" stroke="#800000" cx="49" cy="-211" rx="32.93" ry="18"/>
<text text-anchor="middle" x="49" y="-208.5" font-family="Times,serif" font-size="10.00">ПУСТО</text>
</g>
<!-- node0x603000000070&#45;&gt;null1 -->
<g id="edge1" class="edge">
<title>node0x603000000070&#45;&gt;null1</title>
<path fill="none" stroke="#000000" d="M111.3,-276.4C98.41,-263.07 83.13,-247.28 70.93,-234.67"/>
<polygon fill="#000000" stroke="#000000" points="73.25,-232.04 63.78,-227.28 68.22,-236.9 73.25,-232.04"/>
</g>
<!-- node0x603000000160 -->
<g id="node4" class="node">
<title>node0x603000000160</title>
<path fill="#ffe4c4" stroke="#800000" d="M111.5,-182.5C111.5,-182.5 234.5,-182.5 234.5,-182.5 240.5,-182.5 246.5,-188.5 246.5,-194.5 246.5,-194.5 246.5,-227.5 246.5,-227.5 246.5,-233.5 240.5,-239.5 234.5,-239.5 234.5,-239.5 111.5,-239.5 111.5,-239.5 105.5,-239.5 99.5,-233.5 99.5,-227.5 99.5,-227.5 99.5,-194.5 99.5,-194.5 99.5,-188.5 105.5,-182.5 111.5,-182.5"/>
<text text-anchor="middle" x="173" y="-227.5" font-family="Times,serif" font-size="10.00">PTR: 0x603000000160</text>
<polyline fill="none" stroke="#800000" points="99.5,-220.5 246.5,-220.5 "/>
<text text-anchor="middle" x="173" y="-208.5" font-family="Times,serif" font-size="10.00">DATA: &#45;1</text>
<polyline fill="none" stroke="#800000" points="99.5,-201.5 246.5,-201.5 "/>
<text text-anchor="middle" x="134.5" y="-189.5" font-family="Times,serif" font-size="10.00">LEFT: (nil)</text>
<polyline fill="none" stroke="#800000" points="169.5,-182.5 169.5,-201.5 "/>
<text text-anchor="middle" x="208" y="-189.5" font-family="Times,serif" font-size="10.00">RIGHT: (nil)</text>
</g>
<!-- node0x603000000070&#45;&gt;node0x603000000160 -->
<g id="edge4" class="edge">
<title>node0x603000000070:f1&#45;&gt;node0x603000000160</title>
<path fill="none" stroke="#000000" d="M173,-276C173,-267.55 173,-258.47 173,-249.88"/>
<polygon fill="#000000" stroke="#000000" points="176.5,-249.72 173,-239.72 169.5,-249.72 176.5,-249.72"/>
</g>
<!-- null2 -->
<g id="node5" class="node">
<title>null2</title>
<ellipse fill="#bc8f8f" stroke="#800000" cx="120" cy="-117" rx="32.93" ry="18"/>
<text text-anchor="middle" x="120" y="-114.5" font-family="Times,serif" font-size="10.00">ПУСТО</text>
</g>
<!-- node0x603000000160&#45;&gt;null2 -->
<g id="edge2" class="edge">
<title>node0x603000000160&#45;&gt;null2</title>
<path fill="none" stroke="#000000" d="M157.1,-182.4C149.91,-169.91 141.47,-155.26 134.46,-143.09"/>
<polygon fill="#000000" stroke="#000000" points="137.44,-141.27 129.42,-134.35 131.38,-144.76 137.44,-141.27"/>
</g>
<!-- null3 -->
<g id="node6" class="node">
<title>null3</title>
<ellipse fill="#bc8f8f" stroke="#800000" cx="204" cy="-117" rx="32.93" ry="18"/>
<text text-anchor="middle" x="204" y="-114.5" font-family="Times,serif" font-size="10.00">ПУСТО</text>
</g>
<!-- node0x603000000160&#45;&gt;null3 -->
<g id="edge3" class="edge">
<title>node0x603000000160&#45;&gt;null3</title>
<path fill="none" stroke="#000000" d="M182.3,-182.4C186.33,-170.44 191.03,-156.51 195.02,-144.66"/>
<polygon fill="#000000" stroke="#000000" points="198.43,-145.49 198.31,-134.89 191.8,-143.25 198.43,-145.49"/>
</g>
<!-- node0x6030000000d0 -->
<g id="node8" class="node">
<title>node0x6030000000d0</title>
<path fill="#ffe4c4" stroke="#800000" d="M276.5,-182.5C276.5,-182.5 463.5,-182.5 463.5,-182.5 469.5,-182.5 475.5,-188.5 475.5,-194.5 475.5,-194.5 475.5,-227.5 475.5,-227.5 475.5,-233.5 469.5,-239.5 463.5,-239.5 463.5,-239.5 276.5,-239.5 276.5,-239.5 270.5,-239.5 264.5,-233.5 264.5,-227.5 264.5,-227.5 264.5,-194.5 264.5,-194.5 264.5,-188.5 270.5,-182.5 276.5,-182.5"/>
<text text-anchor="middle" x="370" y="-227.5" font-family="Times,serif" font-size="10.00">PTR: 0x6030000000d0</text>
<polyline fill="none" stroke="#800000" points="264.5,-220.5 475.5,-220.5 "/>
<text text-anchor="middle" x="370" y="-208.5" font-family="Times,serif" font-size="10.00">DATA: 3</text>
<polyline fill="none" stroke="#800000" points="264.5,-201.5 475.5,-201.5 "/>
<text text-anchor="middle" x="299.5" y="-189.5" font-family="Times,serif" font-size="10.00">LEFT: (nil)</text>
<polyline fill="none" stroke="#800000" points="334.5,-182.5 334.5,-201.5 "/>
<text text-anchor="middle" x="405" y="-189.5" font-family="Times,serif" font-size="10.00">RIGHT: 0x603000000130</text>
</g>
<!-- node0x6030000000a0&#45;&gt;node0x6030000000d0 -->
<g id="edge10" class="edge">
<title>node0x6030000000a0:f0&#45;&gt;node0x6030000000d0</title>
<path fill="none" stroke="#000000" d="M370,-276C370,-267.55 370,-258.47 370,-249.88"/>
<polygon fill="#000000" stroke="#000000" points="373.5,-249.72 370,-239.72 366.5,-249.72 373.5,-249.72"/>
</g>
<!-- null7 -->
<g id="node13" class="node">
<title>null7</title>
<ellipse fill="#bc8f8f" stroke="#800000" cx="526" cy="-211" rx="32.93" ry="18"/>
<text text-anchor="middle" x="526" y="-208.5" font-family="Times,serif" font-size="10.00">ПУСТО</text>
</g>
<!-- node0x6030000000a0&#45;&gt;null7 -->
<g id="edge11" class="edge">
<title>node0x6030000000a0&#45;&gt;null7</title>
<path fill="none" stroke="#000000" d="M444.1,-276.4C461.99,-262.33 483.36,-245.53 499.79,-232.61"/>
<polygon fill="#000000" stroke="#000000" points="502.19,-235.18 507.89,-226.24 497.86,-229.67 502.19,-235.18"/>
</g>
<!-- null4 -->
<g id="node9" class="node">
<title>null4</title>
<ellipse fill="#bc8f8f" stroke="#800000" cx="320" cy="-117" rx="32.93" ry="18"/>
<text text-anchor="middle" x="320" y="-114.5" font-family="Times,serif" font-size="10.00">ПУСТО</text>
</g>
<!-- node0x6030000000d0&#45;&gt;null4 -->
<g id="edge6" class="edge">
<title>node0x6030000000d0&#45;&gt;null4</title>
<path fill="none" stroke="#000000" d="M355,-182.4C348.28,-170.03 340.41,-155.55 333.83,-143.45"/>
<polygon fill="#000000" stroke="#000000" points="336.74,-141.46 328.88,-134.35 330.58,-144.81 336.74,-141.46"/>
</g>
<!-- node0x603000000130 -->
<g id="node10" class="node">
<title>node0x603000000130</title>
<path fill="#ffe4c4" stroke="#800000" d="M382.5,-88.5C382.5,-88.5 505.5,-88.5 505.5,-88.5 511.5,-88.5 517.5,-94.5 517.5,-100.5 517.5,-100.5 517.5,-133.5 517.5,-133.5 517.5,-139.5 511.5,-145.5 505.5,-145.5 505.5,-145.5 382.5,-145.5 382.5,-145.5 376.5,-145.5 370.5,-139.5 370.5,-133.5 370.5,-133.5 370.5,-100.5 370.5,-100.5 370.5,-94.5 376.5,-88.5 382.5,-88.5"/>
<text text-anchor="middle" x="444" y="-133.5" font-family="Times,serif" font-size="10.00">PTR: 0x603000000130</text>
<polyline fill="none" stroke="#800000" points="370.5,-126.5 517.5,-126.5 "/>
<text text-anchor="middle" x="444" y="-114.5" font-family="Times,serif" font-size="10.00">DATA: 4</text>
<polyline fill="none" stroke="#800000" points="370.5,-107.5 517.5,-107.5 "/>
<text text-anchor="middle" x="405.5" y="-95.5" font-family="Times,serif" font-size="10.00">LEFT: (nil)</text>
<polyline fill="none" stroke="#800000" points="440.5,-88.5 440.5,-107.5 "/>
<text text-anchor="middle" x="479" y="-95.5" font-family="Times,serif" font-size="10.00">RIGHT: (nil)</text>
</g>
<!-- node0x6030000000d0&#45;&gt;node0x603000000130 -->
<g id="edge9" class="edge">
<title>node0x6030000000d0:f1&#45;&gt;node0x603000000130</title>
<path fill="none" stroke="#000000" d="M405,-182C405,-172.25 408.34,-162.72 413.07,-154.12"/>
<polygon fill="#000000" stroke="#000000" points="416.11,-155.86 418.42,-145.52 410.17,-152.16 416.11,-155.86"/>
</g>
<!-- null5 -->
<g id="node11" class="node">
<title>null5</title>
<ellipse fill="#bc8f8f" stroke="#800000" cx="402" cy="-34" rx="32.93" ry="18"/>
<text text-anchor="middle" x="402" y="-31.5" font-family="Times,serif" font-size="10.00">ПУСТО</text>
</g>
<!-- node0x603000000130&#45;&gt;null5 -->
<g id="edge7" class="edge">
<title>node0x603000000130&#45;&gt;null5</title>
<path fill="none" stroke="#000000" d="M429.55,-88.12C424.95,-79.25 419.88,-69.48 415.36,-60.77"/>
<polygon fill="#000000" stroke="#000000" points="418.43,-59.08 410.72,-51.81 412.21,-62.3 418.43,-59.08"/>
</g>
<!-- null6 -->
<g id="node12" class="node">
<title>null6</title>
<ellipse fill="#bc8f8f" stroke="#800000" cx="486" cy="-34" rx="32.93" ry="18"/>
<text text-anchor="middle" x="486" y="-31.5" font-family="Times,serif" font-size="10.00">ПУСТО</text>
</g>
<!-- node0x603000000130&#45;&gt;null6 -->
<g id="edge8" class="edge">
<title>node0x603000000130&#45;&gt;null6</title>
<path fill="none" stroke="#000000" d="M458.45,-88.12C463.05,-79.25 468.12,-69.48 472.64,-60.77"/>
<polygon fill="#000000" stroke="#000000" points="475.79,-62.3 477.28,-51.81 469.57,-59.08 475.79,-62.3"/>
</g>
<!-- All -->
<g id="node14" class="node">
<title>All</title>
<path fill="#ffe4c4" stroke="#800000" d="M158,-464.5C158,-464.5 328,-464.5 328,-464.5 334,-464.5 340,-470.5 340,-476.5 340,-476.5 340,-488.5 340,-488.5 340,-494.5 334,-500.5 328,-500.5 328,-500.5 158,-500.5 158,-500.5 152,-500.5 146,-494.5 146,-488.5 146,-488.5 146,-476.5 146,-476.5 146,-470.5 152,-464.5 158,-464.5"/>
<text text-anchor="middle" x="178" y="-480" font-family="Times,serif" font-size="10.00">HEADER</text>
<polyline fill="none" stroke="#800000" points="210,-464.5 210,-500.5 "/>
<text text-anchor="middle" x="275" y="-480" font-family="Times,serif" font-size="10.00">Root: 0x603000000040</text>
</g>
<!-- All&#45;&gt;node0x603000000040 -->
<g id="edge13" class="edge">
<title>All:f0&#45;&gt;node0x603000000040</title>
<path fill="none" stroke="#ffffff" d="M275,-464C275,-455.55 275,-446.47 275,-437.88"/>
<polygon fill="#ffffff" stroke="#ffffff" points="278.5,-437.72 275,-427.72 271.5,-437.72 278.5,-437.72"/>
</g>
</g>
</svg>
